<mxfile host="app.diagrams.net" agent="Mozilla/5.0 (Windows NT 10.0; Win64; x64) AppleWebKit/537.36 (KHTML, like Gecko) Chrome/135.0.0.0 Safari/537.36" version="26.2.13">
  <diagram name="Page-1" id="ebLIWrAA_KVH8E_r7rtH">
    <mxGraphModel dx="1428" dy="743" grid="1" gridSize="10" guides="1" tooltips="1" connect="1" arrows="1" fold="1" page="1" pageScale="1" pageWidth="850" pageHeight="1100" math="0" shadow="0">
      <root>
        <mxCell id="0" />
        <mxCell id="1" parent="0" />
        <mxCell id="qpnbn5kVtyn3iVc8ol_X-37" value="NextJS&lt;div&gt;BFF&lt;/div&gt;" style="rounded=1;whiteSpace=wrap;html=1;" parent="1" vertex="1">
          <mxGeometry x="50" y="180" width="120" height="60" as="geometry" />
        </mxCell>
        <mxCell id="qpnbn5kVtyn3iVc8ol_X-38" value="&lt;font style=&quot;font-size: 18px;&quot;&gt;GATEWAY&lt;/font&gt;" style="rounded=0;whiteSpace=wrap;html=1;flipV=1;flipH=0;textDirection=vertical-lr;spacing=2;" parent="1" vertex="1">
          <mxGeometry x="240" y="80" width="40" height="450" as="geometry" />
        </mxCell>
        <mxCell id="qpnbn5kVtyn3iVc8ol_X-126" style="edgeStyle=orthogonalEdgeStyle;rounded=0;orthogonalLoop=1;jettySize=auto;html=1;exitX=0.5;exitY=1;exitDx=0;exitDy=0;entryX=0.5;entryY=0;entryDx=0;entryDy=0;" parent="1" source="qpnbn5kVtyn3iVc8ol_X-48" target="qpnbn5kVtyn3iVc8ol_X-37" edge="1">
          <mxGeometry relative="1" as="geometry" />
        </mxCell>
        <mxCell id="qpnbn5kVtyn3iVc8ol_X-48" value="NextJS&amp;nbsp;&lt;div&gt;Web App&lt;/div&gt;" style="rounded=1;whiteSpace=wrap;html=1;" parent="1" vertex="1">
          <mxGeometry x="50" y="80" width="120" height="60" as="geometry" />
        </mxCell>
        <mxCell id="qpnbn5kVtyn3iVc8ol_X-59" value="" style="group" parent="1" vertex="1" connectable="0">
          <mxGeometry x="330" y="80" width="300" height="120" as="geometry" />
        </mxCell>
        <mxCell id="qpnbn5kVtyn3iVc8ol_X-53" value="" style="rounded=0;whiteSpace=wrap;html=1;glass=0;shadow=0;dashed=1;" parent="qpnbn5kVtyn3iVc8ol_X-59" vertex="1">
          <mxGeometry width="300" height="120" as="geometry" />
        </mxCell>
        <mxCell id="qpnbn5kVtyn3iVc8ol_X-54" value="" style="rounded=0;whiteSpace=wrap;html=1;" parent="qpnbn5kVtyn3iVc8ol_X-59" vertex="1">
          <mxGeometry x="20" y="55" width="120" height="45" as="geometry" />
        </mxCell>
        <mxCell id="qpnbn5kVtyn3iVc8ol_X-55" value="" style="shape=cylinder3;whiteSpace=wrap;html=1;boundedLbl=1;backgroundOutline=1;size=15;" parent="qpnbn5kVtyn3iVc8ol_X-59" vertex="1">
          <mxGeometry x="180" y="47.5" width="40" height="60" as="geometry" />
        </mxCell>
        <mxCell id="qpnbn5kVtyn3iVc8ol_X-56" value="Postgres Database" style="text;html=1;align=center;verticalAlign=middle;whiteSpace=wrap;rounded=0;" parent="qpnbn5kVtyn3iVc8ol_X-59" vertex="1">
          <mxGeometry x="230" y="62.5" width="60" height="30" as="geometry" />
        </mxCell>
        <mxCell id="qpnbn5kVtyn3iVc8ol_X-57" style="edgeStyle=orthogonalEdgeStyle;rounded=0;orthogonalLoop=1;jettySize=auto;html=1;exitX=1;exitY=0.5;exitDx=0;exitDy=0;entryX=0;entryY=0.5;entryDx=0;entryDy=0;entryPerimeter=0;" parent="qpnbn5kVtyn3iVc8ol_X-59" source="qpnbn5kVtyn3iVc8ol_X-54" target="qpnbn5kVtyn3iVc8ol_X-55" edge="1">
          <mxGeometry relative="1" as="geometry" />
        </mxCell>
        <mxCell id="qpnbn5kVtyn3iVc8ol_X-58" value="Project Issue Svc" style="text;html=1;align=center;verticalAlign=middle;whiteSpace=wrap;rounded=0;" parent="qpnbn5kVtyn3iVc8ol_X-59" vertex="1">
          <mxGeometry x="90" y="10" width="120" height="30" as="geometry" />
        </mxCell>
        <mxCell id="qpnbn5kVtyn3iVc8ol_X-60" value="" style="group" parent="1" vertex="1" connectable="0">
          <mxGeometry x="330" y="240" width="300" height="120" as="geometry" />
        </mxCell>
        <mxCell id="qpnbn5kVtyn3iVc8ol_X-61" value="" style="rounded=0;whiteSpace=wrap;html=1;glass=0;shadow=0;dashed=1;" parent="qpnbn5kVtyn3iVc8ol_X-60" vertex="1">
          <mxGeometry width="300" height="120" as="geometry" />
        </mxCell>
        <mxCell id="qpnbn5kVtyn3iVc8ol_X-62" value="" style="rounded=0;whiteSpace=wrap;html=1;" parent="qpnbn5kVtyn3iVc8ol_X-60" vertex="1">
          <mxGeometry x="20" y="55" width="120" height="45" as="geometry" />
        </mxCell>
        <mxCell id="qpnbn5kVtyn3iVc8ol_X-63" value="" style="shape=cylinder3;whiteSpace=wrap;html=1;boundedLbl=1;backgroundOutline=1;size=15;" parent="qpnbn5kVtyn3iVc8ol_X-60" vertex="1">
          <mxGeometry x="180" y="47.5" width="40" height="60" as="geometry" />
        </mxCell>
        <mxCell id="qpnbn5kVtyn3iVc8ol_X-64" value="Postgres Database" style="text;html=1;align=center;verticalAlign=middle;whiteSpace=wrap;rounded=0;" parent="qpnbn5kVtyn3iVc8ol_X-60" vertex="1">
          <mxGeometry x="230" y="62.5" width="60" height="30" as="geometry" />
        </mxCell>
        <mxCell id="qpnbn5kVtyn3iVc8ol_X-65" style="edgeStyle=orthogonalEdgeStyle;rounded=0;orthogonalLoop=1;jettySize=auto;html=1;exitX=1;exitY=0.5;exitDx=0;exitDy=0;entryX=0;entryY=0.5;entryDx=0;entryDy=0;entryPerimeter=0;" parent="qpnbn5kVtyn3iVc8ol_X-60" source="qpnbn5kVtyn3iVc8ol_X-62" target="qpnbn5kVtyn3iVc8ol_X-63" edge="1">
          <mxGeometry relative="1" as="geometry" />
        </mxCell>
        <mxCell id="qpnbn5kVtyn3iVc8ol_X-66" value="User Svc" style="text;html=1;align=center;verticalAlign=middle;whiteSpace=wrap;rounded=0;" parent="qpnbn5kVtyn3iVc8ol_X-60" vertex="1">
          <mxGeometry x="90" y="10" width="120" height="30" as="geometry" />
        </mxCell>
        <mxCell id="qpnbn5kVtyn3iVc8ol_X-75" value="" style="group" parent="1" vertex="1" connectable="0">
          <mxGeometry x="330" y="400" width="300" height="120" as="geometry" />
        </mxCell>
        <mxCell id="qpnbn5kVtyn3iVc8ol_X-76" value="" style="rounded=0;whiteSpace=wrap;html=1;glass=0;shadow=0;dashed=1;" parent="qpnbn5kVtyn3iVc8ol_X-75" vertex="1">
          <mxGeometry width="300" height="120" as="geometry" />
        </mxCell>
        <mxCell id="qpnbn5kVtyn3iVc8ol_X-77" value="" style="rounded=0;whiteSpace=wrap;html=1;" parent="qpnbn5kVtyn3iVc8ol_X-75" vertex="1">
          <mxGeometry x="20" y="55" width="120" height="45" as="geometry" />
        </mxCell>
        <mxCell id="qpnbn5kVtyn3iVc8ol_X-78" value="" style="shape=cylinder3;whiteSpace=wrap;html=1;boundedLbl=1;backgroundOutline=1;size=15;" parent="qpnbn5kVtyn3iVc8ol_X-75" vertex="1">
          <mxGeometry x="180" y="47.5" width="40" height="60" as="geometry" />
        </mxCell>
        <mxCell id="qpnbn5kVtyn3iVc8ol_X-79" value="Redis" style="text;html=1;align=center;verticalAlign=middle;whiteSpace=wrap;rounded=0;" parent="qpnbn5kVtyn3iVc8ol_X-75" vertex="1">
          <mxGeometry x="230" y="62.5" width="60" height="30" as="geometry" />
        </mxCell>
        <mxCell id="qpnbn5kVtyn3iVc8ol_X-80" style="edgeStyle=orthogonalEdgeStyle;rounded=0;orthogonalLoop=1;jettySize=auto;html=1;exitX=1;exitY=0.5;exitDx=0;exitDy=0;entryX=0;entryY=0.5;entryDx=0;entryDy=0;entryPerimeter=0;" parent="qpnbn5kVtyn3iVc8ol_X-75" source="qpnbn5kVtyn3iVc8ol_X-77" target="qpnbn5kVtyn3iVc8ol_X-78" edge="1">
          <mxGeometry relative="1" as="geometry" />
        </mxCell>
        <mxCell id="qpnbn5kVtyn3iVc8ol_X-81" value="Issue Stats Svc" style="text;html=1;align=center;verticalAlign=middle;whiteSpace=wrap;rounded=0;" parent="qpnbn5kVtyn3iVc8ol_X-75" vertex="1">
          <mxGeometry x="90" y="10" width="120" height="30" as="geometry" />
        </mxCell>
        <mxCell id="qpnbn5kVtyn3iVc8ol_X-83" value="&lt;span style=&quot;font-size: 18px;&quot;&gt;Publish / Subscribe&lt;/span&gt;&lt;div&gt;&lt;span style=&quot;font-size: 18px;&quot;&gt;RabbitMQ Event Bus&lt;/span&gt;&lt;/div&gt;" style="rounded=1;whiteSpace=wrap;html=1;flipV=1;flipH=0;textDirection=vertical-lr;spacing=2;" parent="1" vertex="1">
          <mxGeometry x="730" y="80" width="70" height="450" as="geometry" />
        </mxCell>
        <mxCell id="qpnbn5kVtyn3iVc8ol_X-90" value="" style="endArrow=classic;html=1;rounded=0;" parent="1" edge="1">
          <mxGeometry width="50" height="50" relative="1" as="geometry">
            <mxPoint x="280" y="139.5" as="sourcePoint" />
            <mxPoint x="330" y="140" as="targetPoint" />
          </mxGeometry>
        </mxCell>
        <mxCell id="qpnbn5kVtyn3iVc8ol_X-91" value="" style="endArrow=classic;html=1;rounded=0;" parent="1" edge="1">
          <mxGeometry width="50" height="50" relative="1" as="geometry">
            <mxPoint x="280" y="299.5" as="sourcePoint" />
            <mxPoint x="330" y="300" as="targetPoint" />
          </mxGeometry>
        </mxCell>
        <mxCell id="qpnbn5kVtyn3iVc8ol_X-92" value="" style="endArrow=classic;html=1;rounded=0;" parent="1" edge="1">
          <mxGeometry width="50" height="50" relative="1" as="geometry">
            <mxPoint x="280" y="459.5" as="sourcePoint" />
            <mxPoint x="330" y="460" as="targetPoint" />
          </mxGeometry>
        </mxCell>
        <mxCell id="qpnbn5kVtyn3iVc8ol_X-96" value="" style="group" parent="1" vertex="1" connectable="0">
          <mxGeometry x="632.5" y="96.82" width="90" height="44.5" as="geometry" />
        </mxCell>
        <mxCell id="qpnbn5kVtyn3iVc8ol_X-94" value="" style="shape=message;html=1;html=1;outlineConnect=0;labelPosition=center;verticalLabelPosition=bottom;align=center;verticalAlign=top;" parent="qpnbn5kVtyn3iVc8ol_X-96" vertex="1">
          <mxGeometry x="30" width="40" height="30" as="geometry" />
        </mxCell>
        <mxCell id="qpnbn5kVtyn3iVc8ol_X-93" value="" style="endArrow=classic;startArrow=classic;html=1;rounded=0;" parent="1" edge="1">
          <mxGeometry width="50" height="50" relative="1" as="geometry">
            <mxPoint x="637.5" y="141.32" as="sourcePoint" />
            <mxPoint x="727.5" y="141.32" as="targetPoint" />
          </mxGeometry>
        </mxCell>
        <mxCell id="qpnbn5kVtyn3iVc8ol_X-103" value="" style="group" parent="1" vertex="1" connectable="0">
          <mxGeometry x="630" y="250" width="90" height="44.5" as="geometry" />
        </mxCell>
        <mxCell id="qpnbn5kVtyn3iVc8ol_X-104" value="" style="shape=message;html=1;html=1;outlineConnect=0;labelPosition=center;verticalLabelPosition=bottom;align=center;verticalAlign=top;" parent="qpnbn5kVtyn3iVc8ol_X-103" vertex="1">
          <mxGeometry x="30" width="40" height="30" as="geometry" />
        </mxCell>
        <mxCell id="qpnbn5kVtyn3iVc8ol_X-105" value="" style="endArrow=classic;startArrow=classic;html=1;rounded=0;" parent="1" edge="1">
          <mxGeometry width="50" height="50" relative="1" as="geometry">
            <mxPoint x="635" y="294.5" as="sourcePoint" />
            <mxPoint x="725" y="294.5" as="targetPoint" />
          </mxGeometry>
        </mxCell>
        <mxCell id="qpnbn5kVtyn3iVc8ol_X-106" value="" style="group" parent="1" vertex="1" connectable="0">
          <mxGeometry x="630" y="416.82000000000005" width="90" height="44.5" as="geometry" />
        </mxCell>
        <mxCell id="qpnbn5kVtyn3iVc8ol_X-107" value="" style="shape=message;html=1;html=1;outlineConnect=0;labelPosition=center;verticalLabelPosition=bottom;align=center;verticalAlign=top;" parent="qpnbn5kVtyn3iVc8ol_X-106" vertex="1">
          <mxGeometry x="30" width="40" height="30" as="geometry" />
        </mxCell>
        <mxCell id="qpnbn5kVtyn3iVc8ol_X-108" value="" style="endArrow=classic;startArrow=classic;html=1;rounded=0;" parent="1" edge="1">
          <mxGeometry width="50" height="50" relative="1" as="geometry">
            <mxPoint x="635" y="461.32000000000005" as="sourcePoint" />
            <mxPoint x="725" y="461.32000000000005" as="targetPoint" />
          </mxGeometry>
        </mxCell>
        <mxCell id="qpnbn5kVtyn3iVc8ol_X-109" value="" style="endArrow=classic;html=1;rounded=0;" parent="1" source="qpnbn5kVtyn3iVc8ol_X-37" edge="1">
          <mxGeometry width="50" height="50" relative="1" as="geometry">
            <mxPoint x="200" y="209.5" as="sourcePoint" />
            <mxPoint x="240" y="210" as="targetPoint" />
          </mxGeometry>
        </mxCell>
        <mxCell id="qpnbn5kVtyn3iVc8ol_X-110" value="" style="group" parent="1" vertex="1" connectable="0">
          <mxGeometry x="330" y="571" width="300" height="120" as="geometry" />
        </mxCell>
        <mxCell id="qpnbn5kVtyn3iVc8ol_X-111" value="" style="rounded=0;whiteSpace=wrap;html=1;glass=0;shadow=0;dashed=1;" parent="qpnbn5kVtyn3iVc8ol_X-110" vertex="1">
          <mxGeometry width="300" height="120" as="geometry" />
        </mxCell>
        <mxCell id="qpnbn5kVtyn3iVc8ol_X-112" value="" style="rounded=0;whiteSpace=wrap;html=1;" parent="qpnbn5kVtyn3iVc8ol_X-110" vertex="1">
          <mxGeometry x="20" y="55" width="120" height="45" as="geometry" />
        </mxCell>
        <mxCell id="qpnbn5kVtyn3iVc8ol_X-113" value="" style="shape=cylinder3;whiteSpace=wrap;html=1;boundedLbl=1;backgroundOutline=1;size=15;" parent="qpnbn5kVtyn3iVc8ol_X-110" vertex="1">
          <mxGeometry x="180" y="47.5" width="40" height="60" as="geometry" />
        </mxCell>
        <mxCell id="qpnbn5kVtyn3iVc8ol_X-114" value="Postgres Database" style="text;html=1;align=center;verticalAlign=middle;whiteSpace=wrap;rounded=0;" parent="qpnbn5kVtyn3iVc8ol_X-110" vertex="1">
          <mxGeometry x="230" y="62.5" width="60" height="30" as="geometry" />
        </mxCell>
        <mxCell id="qpnbn5kVtyn3iVc8ol_X-115" style="edgeStyle=orthogonalEdgeStyle;rounded=0;orthogonalLoop=1;jettySize=auto;html=1;exitX=1;exitY=0.5;exitDx=0;exitDy=0;entryX=0;entryY=0.5;entryDx=0;entryDy=0;entryPerimeter=0;" parent="qpnbn5kVtyn3iVc8ol_X-110" source="qpnbn5kVtyn3iVc8ol_X-112" target="qpnbn5kVtyn3iVc8ol_X-113" edge="1">
          <mxGeometry relative="1" as="geometry" />
        </mxCell>
        <mxCell id="qpnbn5kVtyn3iVc8ol_X-116" value="Identity Svc" style="text;html=1;align=center;verticalAlign=middle;whiteSpace=wrap;rounded=0;" parent="qpnbn5kVtyn3iVc8ol_X-110" vertex="1">
          <mxGeometry x="90" y="10" width="120" height="30" as="geometry" />
        </mxCell>
        <mxCell id="qpnbn5kVtyn3iVc8ol_X-118" value="" style="endArrow=none;html=1;rounded=0;strokeWidth=1;" parent="1" edge="1">
          <mxGeometry width="50" height="50" relative="1" as="geometry">
            <mxPoint x="276" y="691" as="sourcePoint" />
            <mxPoint x="276" y="571" as="targetPoint" />
          </mxGeometry>
        </mxCell>
        <mxCell id="qpnbn5kVtyn3iVc8ol_X-121" value="" style="endArrow=classic;html=1;rounded=0;strokeWidth=1;" parent="1" edge="1">
          <mxGeometry width="50" height="50" relative="1" as="geometry">
            <mxPoint x="276" y="630.5" as="sourcePoint" />
            <mxPoint x="326" y="630.5" as="targetPoint" />
          </mxGeometry>
        </mxCell>
        <mxCell id="qpnbn5kVtyn3iVc8ol_X-124" value="" style="endArrow=classic;html=1;rounded=0;strokeWidth=1;" parent="1" edge="1">
          <mxGeometry width="50" height="50" relative="1" as="geometry">
            <mxPoint x="226" y="611" as="sourcePoint" />
            <mxPoint x="276" y="611" as="targetPoint" />
          </mxGeometry>
        </mxCell>
        <mxCell id="qpnbn5kVtyn3iVc8ol_X-125" value="" style="endArrow=classic;html=1;rounded=0;strokeWidth=1;" parent="1" edge="1">
          <mxGeometry width="50" height="50" relative="1" as="geometry">
            <mxPoint x="226" y="651" as="sourcePoint" />
            <mxPoint x="276" y="651" as="targetPoint" />
          </mxGeometry>
        </mxCell>
        <mxCell id="qpnbn5kVtyn3iVc8ol_X-128" value="" style="endArrow=classic;html=1;rounded=0;" parent="1" edge="1">
          <mxGeometry width="50" height="50" relative="1" as="geometry">
            <mxPoint x="170" y="109.40999999999997" as="sourcePoint" />
            <mxPoint x="240" y="109.40999999999997" as="targetPoint" />
          </mxGeometry>
        </mxCell>
        <mxCell id="9nlpt1dTnQXzzU3KZe3X-1" value="" style="rounded=0;whiteSpace=wrap;html=1;fillColor=none;strokeColor=none;" vertex="1" parent="1">
          <mxGeometry y="37" width="850" height="683" as="geometry" />
        </mxCell>
      </root>
    </mxGraphModel>
  </diagram>
</mxfile>
